<?xml version="1.0" encoding="UTF-8"?><svg id="Calque_1" xmlns="http://www.w3.org/2000/svg" xmlns:xlink="http://www.w3.org/1999/xlink" viewBox="0 0 781.48 267.4"><defs><style>.cls-1{fill:#ee7e32;fill-rule:evenodd;filter:url(#drop-shadow-1);}.cls-2{fill:#0f7d35;}</style><filter id="drop-shadow-1" filterUnits="userSpaceOnUse"><feOffset dx="-15.21" dy="8.69"/><feGaussianBlur result="blur" stdDeviation="6.52"/><feFlood flood-color="#000" flood-opacity=".53"/><feComposite in2="blur" operator="in"/><feComposite in="SourceGraphic"/></filter></defs><path class="cls-2" d="m206.7,266.56c-3.47-.02-3.91-.47-3.89-4.01l.02-3.11c0-.42.33-.77.75-.79l2.36-.12c-.04-.1-.08-.21-.13-.31-.38-.93-.74-1.82-1.14-2.68-2.1-4.52-4.22-9.03-6.33-13.55-1.77-3.79-3.55-7.58-5.31-11.37l-.97-2.09c-5-10.73-10.17-21.82-15.23-32.74-1.13-2.44-2.24-4.9-3.35-7.35-1.11-2.45-2.22-4.9-3.35-7.34,0-.01-.13-.15-.69-.38,0,0-.03,0-.13,0-.09,0-.17,0-.26.01-.12,0-.25.02-.37.02l-88.21-.58-37.18,77.32c1.01.2,1.74.51,2.23,1.15.83,1.08.76,2.71.26,6.19-.06.39-.39.68-.79.68,0,0-41.11-.27-41.11-.27-3.47-.02-3.9-.47-3.88-4.01l.02-2.88c0-.28.15-.53.38-.67.07-.05.13-.09.19-.13.16-.12.38-.28.7-.28.05,0,.12,0,.18.02.4.08.77.12,1.1.12,1.96,0,2.58-1.33,3.43-3.51.22-.56.44-1.14.71-1.67,2.18-4.31,4.28-8.75,6.32-13.04.93-1.95,1.85-3.9,2.79-5.85,2.65-5.52,5.31-11.04,7.96-16.56,3.05-6.33,6.09-12.67,9.14-19.01,2.06-4.29,4.11-8.59,6.21-12.98l2.33-4.87c-.09,0-.17,0-.26,0-.43.01-.85.02-1.26.02-.89,0-1.56-.05-2.2-.17-1.01-.18-2.56-1.35-2.56-2.45-.04-8.36.02-16.9.08-25.15l.04-5.55c0-.44.36-.79.8-.79,0,0,21.68.14,21.68.14l2.31-4.75c2.02-4.16,4.03-8.29,6.02-12.42.65-1.35,1.29-2.74,1.9-4.08.67-1.47,1.37-2.99,2.09-4.47,1.74-3.58,3.49-7.16,5.24-10.73,2.28-4.65,4.63-9.45,6.91-14.19,4.64-9.63,9.32-19.43,13.84-28.92l2.46-5.16c.86-1.79,1.7-3.59,2.55-5.39,1.6-3.4,3.25-6.91,4.94-10.33.43-.86.43-1.49,0-2.38-2.89-6.11-5.69-12.11-8.29-17.69-1.15-2.47-2.29-4.94-3.47-7.5l-1.66-3.6c-.18-.38-.02-.84.35-1.04.34-.18.67-.36,1-.54.7-.38,1.43-.78,2.18-1.12,4.14-1.89,8.29-3.77,12.44-5.65l5.43-2.46c.64-.29,1.28-.57,1.93-.85,1.51-.66,3.08-1.35,4.54-2.13.71-.38,1.35-.56,1.95-.56,1.76,0,2.63,1.64,2.91,2.18.24.46.49.92.78,1.45.32-.55.59-1.05.8-1.55.57-1.39,1.45-2.1,2.6-2.1.55,0,1.15.16,1.84.5,5.21,2.53,10.41,5,16.18,7.74,3.5,1.66,6.62,3.11,9.55,4.44.73.33,1.74.89,2.11,1.91.28.78.16,1.69-.4,2.84l-2.22,4.6c-3.49,7.23-7.1,14.7-10.56,22.09-.27.57-.22,1.66.1,2.37,2.61,5.81,5.35,11.68,8,17.35l20.92,44.94c2.15,4.61,4.3,9.23,6.43,13.85,1.05,2.27,2.09,4.55,3.13,6.82,2.47,5.39,5.03,10.96,7.62,16.4.16.35,1.13.85,1.81.87,4.24.11,8.56.13,12.73.15,1.5,0,3,.01,4.51.02,3.23.02,3.8.57,3.78,3.69-.04,7.19-.09,14.37-.14,21.67l-.05,7.91c0,.44-.36.79-.8.79,0,0-5.55-.04-5.55-.04.06.2.12.37.19.52,1.81,3.88,3.63,7.76,5.44,11.63,2.07,4.43,4.15,8.86,6.21,13.29,5.41,11.6,10.82,23.21,16.21,34.83l.64,1.39c2.25,4.85,4.58,9.87,6.77,14.85.54,1.22.95,1.44,1.63,1.44.12,0,.24,0,.37-.02.2-.02.39-.04.57-.04.85,0,1.52.26,2,.76.54.57.78,1.41.72,2.5-.05.84-.04,1.7-.04,2.61,0,.44,0,.9,0,1.37,0,.21-.09.41-.24.56-.15.15-.35.23-.56.23,0,0-41.76-.27-41.76-.27Zm39.57-2.79v-1.95s-40.48-.27-40.48-.27v1.95s40.48.27,40.48.27Zm-203.16-1.32v-1.97s-40.06-.26-40.06-.26v1.97s40.06.26,40.06.26ZM143.5,48.95c-.36.67-.33,1.33.06,2.15.8,1.7,1.57,3.44,2.32,5.13.65,1.46,1.31,2.97,2,4.43,2.14,4.6,4.29,9.2,6.44,13.8,2.09,4.47,4.18,8.93,6.25,13.4,2.64,5.68,5.27,11.36,7.9,17.05,2.66,5.75,5.32,11.49,7.98,17.24,2.11,4.54,4.24,9.08,6.36,13.62,2.09,4.46,4.17,8.92,6.25,13.39,3.15,6.77,6.29,13.55,9.42,20.33,2.3,4.97,4.6,9.94,6.91,14.91,1.96,4.23,3.93,8.46,5.91,12.69l3.22,6.91,5.86,12.6c3.57,7.66,7.13,15.33,10.7,22.99.82,1.76,1.65,3.52,2.48,5.28,1.92,4.06,3.91,8.27,5.73,12.46.53,1.23.96,1.46,1.54,1.46.05,0,.1,0,.15,0l-1.12-2.47c-1.09-2.4-2.15-4.74-3.23-7.07-5.62-12.16-10.69-23.12-15.79-34.09-2.12-4.56-4.25-9.11-6.38-13.66-2.11-4.51-4.22-9.03-6.32-13.54-2.73-5.87-5.45-11.75-8.17-17.63-2.69-5.81-5.37-11.61-8.07-17.41-2.08-4.49-4.18-8.97-6.28-13.45-2.14-4.58-4.29-9.17-6.42-13.75-2.36-5.09-4.72-10.18-7.07-15.27-2.93-6.34-5.86-12.68-8.81-19.01-2.22-4.78-4.51-9.62-6.73-14.31-1.7-3.59-3.39-7.18-5.08-10.78-.78-1.67-1.55-3.37-2.29-5.02-.62-1.38-1.24-2.76-1.88-4.14-.99-2.14-2-4.28-3.03-6.46l-.83-1.76Zm-2.3,4.84c-.77,1.63-1.53,3.26-2.29,4.88-2.11,4.52-4.29,9.2-6.67,13.65-1.77,3.32-2.43,5.8-.54,8.63.09.13.19.29.28.47l.83,1.78c5.13,11.01,10.26,22.03,15.38,33.05,1.58,3.4,3.16,6.81,4.74,10.21,1.54,3.32,3.08,6.65,4.63,9.97,2.74,5.89,16.21,34.83,16.21,34.83,1.29,2.78,2.58,5.56,3.88,8.35,1.83,3.94,3.66,7.89,5.5,11.83,4.09,8.77,8.19,17.54,12.28,26.32l5.83,12.5,5.46,11.73c2.45,5.26,4.98,10.7,7.52,16.03.1.22.63.56.87.57,5.87.09,11.65.13,17.76.16l3.51.02c-.02-.07-.04-.12-.06-.17-2.11-4.57-4.23-9.14-6.35-13.71-2.06-4.42-4.11-8.83-6.17-13.25-2.11-4.53-4.22-9.05-6.33-13.58-5.55-11.93-11.1-23.85-16.64-35.79-1.45-3.12-2.89-6.24-4.33-9.36-1.49-3.23-2.98-6.46-4.48-9.69-3.22-6.93-6.45-13.86-9.67-20.79l-6.53-14.04c-2.54-5.47-5.08-10.93-7.62-16.4l-5.25-11.31c-4.26-9.17-8.51-18.34-12.77-27.51-.99-2.13-1.98-4.27-2.97-6.41-2-4.33-4.01-8.65-6.02-12.98Zm-13.04,27.17c-.52,1-.12,1.99.54,3.4l.15.31c2.15,4.66,4.32,9.3,6.48,13.95,1,2.14,2,4.28,2.99,6.41,5.41,11.61,10.81,23.22,16.21,34.83,2.1,4.52,4.2,9.04,6.3,13.57,2.02,4.36,4.05,8.72,6.08,13.09,2.34,5.02,4.67,10.05,7.01,15.07,3.21,6.9,6.43,13.81,9.64,20.71,1.4,3.01,2.79,6.02,4.18,9.04,1.54,3.34,3.08,6.68,4.63,10.01,1.7,3.65,3.41,7.3,5.11,10.96,3.8,8.13,7.73,16.54,11.53,24.84.62,1.35,1.15,1.46,1.6,1.46.06,0,.12,0,.18,0-4.14-8.94-8.29-17.92-12.46-26.88-1.54-3.32-3.1-6.64-4.65-9.96-1.53-3.27-3.06-6.55-4.58-9.82-2.67-5.74-5.33-11.48-8-17.23-2.7-5.81-5.39-11.62-8.09-17.43-1.41-3.04-2.83-6.07-4.25-9.1-1.75-3.75-3.51-7.5-5.25-11.25-2.11-4.56-4.22-9.13-6.33-13.69-3.12-6.75-6.34-13.74-9.53-20.59-2.19-4.7-4.45-9.47-6.63-14.07-1.74-3.66-3.47-7.33-5.2-11-.78-1.66-1.54-3.37-2.27-5.02-.62-1.39-1.23-2.78-1.87-4.16-.9-1.96-1.82-3.87-2.79-5.89-.24-.51-.49-1.02-.73-1.53Zm-89.51,176.51c.23,0,.65,0,1.08-.98.96-2.2,2.02-4.39,3.04-6.5l.17-.36c4.34-9.01,8.69-18.01,13.05-27.02,1.89-3.91,3.78-7.81,5.67-11.72,3.17-6.54,6.34-13.09,9.5-19.64,1.33-2.76,2.65-5.59,3.92-8.32.44-.94.88-1.89,1.32-2.83-.37.03-.78.22-1.27,1.28-2.47,5.36-5.06,10.77-7.57,16l-1.06,2.2c-2.99,6.24-5.99,12.46-9,18.69,0,0-5.19,10.75-7.61,15.74-2.77,5.72-5.53,11.44-8.29,17.16-.78,1.62-1.55,3.25-2.32,4.89l-.67,1.41s.02,0,.02,0Zm-22.12-.16c4.51.03,8.77.07,13.05.07,1.49,0,2.97,0,4.45-.01.21-.01.81-.46,1.02-.88,1.87-3.8,3.72-7.69,5.51-11.45.76-1.6,1.52-3.2,2.29-4.8l3.56-7.45c4.2-8.79,8.55-17.87,12.85-26.79,2.3-4.77,4.62-9.53,6.94-14.3,1.73-3.54,3.45-7.08,5.17-10.63.14-.29.24-.6.35-.96-1.31,0-2.62-.02-3.92-.03-4-.03-7.77-.06-11.6-.06-1.69,0-3.37,0-5.06.02-.45,0-1.28.54-1.5.97-1.08,2.12-2.09,4.32-3.07,6.45-.64,1.39-1.27,2.77-1.93,4.14-3.36,7.01-6.75,14.02-10.13,21.02l-8.53,17.65c-3.15,6.51-6.3,13.02-9.44,19.53-.9,1.86-1.78,3.73-2.7,5.71-.27.58-.55,1.17-.83,1.78l3.53.03Zm-8.09-.05c.35,0,.72-.12,1.07-.97.52-1.28,1.1-2.51,1.75-3.86,2.5-5.22,5.01-10.44,7.52-15.66l6.95-14.48c4.11-8.56,8.22-17.11,12.34-25.67,1.94-4.03,3.89-8.05,5.87-12.1l2.27-4.67s-.02,0-.02,0c-.4,0-.83.11-1.37,1.43-.72,1.78-1.58,3.52-2.41,5.2-.34.68-.68,1.37-1.01,2.06l-2.35,4.9c-2.42,5.05-4.85,10.1-7.28,15.15-2.61,5.41-5.22,10.82-7.83,16.23-3.11,6.43-6.21,12.87-9.31,19.3-1.54,3.19-3.06,6.39-4.58,9.6l-1.67,3.52s.1,0,.1,0Zm198.52-80.01c.26.81.74,1.05,2.01,1.05.69,0,1.61-.09,2.94-.28v-.74s-4.95-.03-4.95-.03Zm-38.46.5c-.36-.69-1.03-.91-2.37-.92-35.6-.2-71.8-.44-106.81-.67l-21.27-.14v.87s130.45.85,130.45.85Zm28.94-20.66c2.6,5.7,5.05,11.08,7.6,16.53.1.21.66.56,1.01.58,1.29.08,2.61.09,3.84.09,0,0,1.95,0,1.99,0l.13-20.16-15.97-.1,1.4,3.06Zm-30.77,16.83c-.08-.26-.17-.5-.27-.72-.89-1.9-1.79-3.8-2.68-5.7-1.88-3.99-3.83-8.11-5.67-12.2-.58-1.29-1.14-1.64-2.64-1.65-19.52-.08-39.37-.21-58.56-.34l-15.06-.1c.96,1.87,1.06,3.93.09,4.88-.89.88-1.99,1.36-3.09,1.36-.97,0-1.9-.36-2.68-1.05-1.35-1.18-1.61-3.26-.8-5.14l-5.09-.03c.85,1.7,1.05,3.74.05,4.77-.94.96-1.87,1.42-2.85,1.42-.89,0-1.79-.41-2.66-1.21-1.6-1.47-1.99-3.21-1.14-5.01l-25.41-.17-.13,20.05,128.59.84Zm27.49-24.04c.3.37.85,1.06,1.08,1.09,4.41.18,8.93.19,13.31.2,1.17,0,2.35,0,3.53.01v-1.29s-18-.12-18-.12c.03.03.05.07.08.1Zm-38.25.82c-.38-1-1.06-1.34-2.45-1.34-31.16-.16-62.84-.37-93.48-.57l-21.75-.14v1.28s117.69.77,117.69.77Zm-1.94-4.22l-28.18-60.61-28.96,60.24,57.14.37Zm1.15-131.05c-.08.03-.23.2-.55.87-2.23,4.74-4.45,9.38-6.14,12.89-1.59,3.3-3.18,6.59-4.77,9.89-1.57,3.26-3.15,6.51-4.72,9.77-2.74,5.69-5.47,11.38-8.2,17.07-2.78,5.79-5.56,11.58-8.34,17.37-2.02,4.2-4.05,8.4-6.08,12.6-1.23,2.54-6.48,13.43-6.48,13.43-4.08,8.47-8.17,16.93-12.24,25.4-1.35,2.81-2.69,5.63-4.03,8.45l-1.41,2.97c.43,0,.77-.2,1.24-1.23,1.49-3.28,3.07-6.57,4.6-9.76l.88-1.82c2.02-4.2,4.04-8.39,6.06-12.59,2.35-4.88,4.7-9.76,7.05-14.65,2.39-4.99,4.78-9.98,7.17-14.97,3.02-6.31,6.04-12.62,9.07-18.92,2.49-5.17,4.99-10.34,7.49-15.5,1.86-3.84,3.72-7.68,5.57-11.53,4.71-9.77,9.31-19.31,13.8-28.77.11-.24.16-.71.14-.97-.06-.03-.1-.03-.1-.03h0Zm-85.75,130.54c6.03.04,11.73.08,17.53.08h1.01c.09-.03.4-.28.48-.46,1.97-4.08,3.92-8.17,5.87-12.26,1.39-2.91,2.78-5.83,4.17-8.74,3.17-6.6,6.34-13.2,9.52-19.79,2.53-5.25,5.06-10.51,7.59-15.77,1.4-2.91,2.79-5.83,4.18-8.74,1.62-3.4,3.24-6.79,4.88-10.19,3.11-6.46,6.23-12.92,9.35-19.38,2.6-5.38,5.2-10.77,7.8-16.15,2.34-4.85,4.67-9.71,7.05-14.67l2.91-6.07-17.71-8.36c-.69,1.47-1.37,2.92-2.04,4.35-1.73,3.7-3.37,7.19-5.07,10.73-2.27,4.72-4.55,9.44-6.83,14.15-2.08,4.29-4.15,8.58-6.22,12.88-2.74,5.7-5.47,11.41-8.2,17.11-2.7,5.65-5.41,11.3-8.12,16.95-3.15,6.55-6.31,13.1-9.48,19.64l-8.56,17.71c-3.48,7.21-6.97,14.41-10.45,21.62-.67,1.39-1.31,2.79-1.99,4.27-.16.35-.32.7-.49,1.06l2.82.02ZM130.39,4.14c-.21.07-.39.15-.53.25-.01.03-.07.21-.12.34-.06.17-.12.34-.19.49,0,0-8.04,16.7-10.02,20.81-1.41,2.93-2.82,5.86-4.22,8.79-1.59,3.31-3.18,6.63-4.78,9.94-2.78,5.77-13.89,28.84-16.66,34.61-1.43,2.98-2.87,5.96-4.3,8.95-1.78,3.7-3.56,7.41-5.34,11.11-2.87,5.96-5.75,11.92-8.62,17.88-2.84,5.89-5.68,11.78-8.52,17.67-1.31,2.71-2.6,5.42-3.9,8.14l-1.31,2.75c.37-.15.82-.35.9-.5,2.48-5.05,4.94-10.23,7.31-15.24,1.12-2.36,2.24-4.72,3.36-7.08,5.4-11.31,10.89-22.78,16.32-34.08,1.63-3.4,3.28-6.8,4.93-10.19,1.65-3.4,3.3-6.81,4.94-10.22,2.48-5.15,4.94-10.31,7.41-15.47,3-6.27,6-12.54,9.01-18.8,2.55-5.3,5.13-10.59,7.7-15.89,1.47-3.02,2.94-6.04,4.4-9.06l.39-.79c.65-1.34,1.33-2.72,1.88-4.1,0-.05-.02-.17-.06-.31Zm-32.86,11.01c-.49.13-.6.28-.62.32-.03.06-.11.31.28,1.11,1.21,2.54,2.42,5.13,3.58,7.64.79,1.7,1.58,3.4,2.37,5.1,1.36,2.88,2.72,5.76,4.1,8.66l1.29,2.71c.41-.88.16-1.78-.44-3.05-.89-1.89-1.76-3.79-2.63-5.68-.76-1.66-1.52-3.32-2.3-4.98-1.36-2.9-2.74-5.78-4.11-8.66l-1.51-3.17Zm13.27,20.59c3.64-7.53,7.26-15.07,10.89-22.61.03-.07.07-.14.11-.22.03-.06.08-.16.12-.23-.93-2.08-1.91-4.19-2.86-6.24l-.45-.98-18.02,8.22,10.21,22.06Zm12.91-27.31c.42-1.6-.04-2.97-1.46-4.56l-.58.2,2.04,4.36Z"/><path class="cls-2" d="m42.1,258.1c3.38.4,3.67,1.11,2.89,6.6-.66,0-1.36,0-2.06-.01-13.02-.09-26.03-.17-39.05-.26-3.02-.02-3.11-.12-3.09-3.21,0-.99.01-1.98.02-2.88.26-.16.39-.31.49-.29,4.52.91,4.83-2.97,6.11-5.48,3.16-6.24,6.08-12.6,9.11-18.9,5.7-11.86,11.4-23.71,17.1-35.57,2.99-6.23,5.97-12.48,9.09-19-1.78-.01-3.35.16-4.84-.11-.74-.14-1.91-1.09-1.91-1.67-.05-10.18.05-20.36.12-30.69,7.48.05,14.79.1,22.18.15,2.88-5.94,5.73-11.77,8.55-17.62,1.36-2.83,2.61-5.72,3.99-8.55,4.03-8.31,8.14-16.6,12.15-24.92,5.47-11.34,10.88-22.72,16.3-34.08,2.5-5.24,4.91-10.51,7.49-15.71.57-1.15.51-2.02.01-3.08-2.78-5.89-5.54-11.78-8.29-17.68-1.68-3.61-3.34-7.23-5.13-11.1,1.08-.56,2.09-1.15,3.14-1.63,5.95-2.72,11.91-5.41,17.87-8.11,2.18-.99,4.41-1.88,6.51-3,1.86-1,2.93-.33,3.78,1.28.42.8.85,1.59,1.46,2.73.62-1.14,1.17-1.98,1.55-2.9.7-1.7,1.74-1.97,3.36-1.19,5.38,2.62,10.79,5.18,16.19,7.74,3.18,1.51,6.36,2.99,9.57,4.44,1.84.83,2.22,1.82,1.32,3.68-4.28,8.89-8.59,17.76-12.78,26.7-.39.83-.3,2.17.09,3.04,3.28,7.27,6.67,14.49,10.04,21.72,5.52,11.86,11.04,23.73,16.57,35.59,2.92,6.28,5.86,12.55,8.76,18.84,3.58,7.75,7.08,15.53,10.76,23.23.33.7,1.64,1.3,2.51,1.33,5.75.15,11.5.13,17.26.17,2.8.02,3,.21,2.99,2.89-.06,9.77-.13,19.53-.19,29.58-2.16-.01-4.26-.03-6.62-.04.25.77.35,1.24.55,1.66,3.88,8.31,7.78,16.61,11.66,24.92,5.41,11.6,10.82,23.21,16.21,34.83,2.5,5.39,5.02,10.78,7.41,16.22.6,1.36,1.26,2.07,2.83,1.88,1.73-.21,2.5.67,2.4,2.39-.07,1.26-.03,2.53-.04,4.02-.88,0-1.58-.01-2.28-.01-13.16-.09-26.32-.17-39.48-.26-3.02-.02-3.12-.12-3.1-3.21,0-.99.01-1.98.02-3.11,1.18-.06,2.22-.11,3.49-.18-.6-1.42-1.11-2.76-1.71-4.06-3.87-8.31-7.77-16.61-11.64-24.92-5.41-11.61-10.82-23.21-16.21-34.83-2.26-4.88-4.44-9.81-6.7-14.69-.17-.36-.7-.61-1.11-.78-.31-.13-.71-.04-1.07-.04-29.19-.19-58.39-.38-87.58-.57-.29,0-.57,0-1.11,0-12.58,26.16-25.18,52.37-37.87,78.75Zm195.28,1.44c-.16-.65-.19-1-.33-1.3-2.11-4.57-4.23-9.15-6.35-13.71-4.16-8.94-8.34-17.88-12.5-26.83-5.55-11.93-11.1-23.85-16.64-35.78-2.95-6.35-5.86-12.7-8.81-19.05-5.4-11.61-10.81-23.22-16.21-34.83-3.13-6.72-6.25-13.45-9.37-20.18-5.42-11.68-10.84-23.35-16.26-35.03-3.03-6.54-6.05-13.08-9.1-19.61-.12-.26-.51-.4-.9-.69-3.14,6.58-6.01,13.12-9.37,19.41-1.74,3.26-2.69,6.17-.5,9.45.08.12.16.24.22.37,5.41,11.61,10.81,23.22,16.21,34.83,3.13,6.72,6.24,13.45,9.37,20.18,5.4,11.61,10.81,23.22,16.21,34.83,3.13,6.72,6.24,13.46,9.37,20.18,6.03,12.94,12.08,25.87,18.12,38.81,1.21,2.6,2.42,5.2,3.64,7.8,3.1,6.66,6.19,13.33,9.35,19.96.23.49,1.03,1.01,1.57,1.02,7.33.11,14.66.14,22.28.19Zm-172.06-112.82c7.69.05,15.15.11,22.6.11.41,0,1-.5,1.2-.91,3.38-6.99,6.69-14.01,10.05-21,5.69-11.86,11.41-23.7,17.1-35.56,3.03-6.3,6.02-12.63,9.06-18.93,5.71-11.85,11.44-23.69,17.15-35.54,3.4-7.05,6.78-14.11,10.3-21.46-6.41-3.03-12.73-6.01-19.15-9.04-2.57,5.46-4.98,10.64-7.45,15.79-4.33,9.02-8.71,18.01-13.05,27.03-5.45,11.35-10.87,22.72-16.32,34.07-4.3,8.95-8.64,17.89-12.96,26.84-5.18,10.71-10.36,21.42-15.53,32.13-.99,2.06-1.92,4.15-3,6.47Zm-28.03,27.13c43.56.29,86.96.57,130.48.85-.23-.69-.38-1.3-.64-1.86-2.79-5.96-5.65-11.89-8.34-17.89-.72-1.61-1.61-2.11-3.36-2.12-24.3-.1-48.61-.28-72.91-.44-.67,0-1.34,0-2.18-.01,1.45,1.8,1.86,4.27,1,5.12-1.42,1.4-3.29,1.51-4.69.28-1.35-1.18-1.32-3.52.06-5.33-2.62-.02-5.23-.03-7.93-.05,1.38,1.65,1.81,4.13.94,5.01-1.49,1.51-2.89,1.57-4.41.19-1.68-1.54-1.76-3.29-.25-5.21-9.17-.06-18.35-.12-27.63-.18-.05,7.21-.09,14.31-.14,21.64Zm88.52-89.86c-10.26,21.35-20.2,42.03-30.23,62.89,20.07.13,39.69.26,59.65.39-9.77-21.01-19.45-41.84-29.42-63.28ZM11.75,258.07c7.77.05,15.03.13,22.28.09.59,0,1.43-.73,1.72-1.33,2.66-5.39,5.21-10.84,7.8-16.26,5.46-11.42,10.92-22.84,16.41-34.24,4.01-8.32,8.08-16.61,12.11-24.92.3-.63.45-1.32.71-2.09-7.42-.05-14.54-.14-21.65-.08-.76,0-1.85.72-2.2,1.4-1.78,3.48-3.32,7.08-5.01,10.61-4.17,8.7-8.38,17.39-12.58,26.08-5.17,10.71-10.36,21.41-15.53,32.12-1.33,2.75-2.61,5.52-4.07,8.62Zm230.37,1.28c-1.64-3.6-3.18-7.04-4.76-10.46-5.25-11.37-10.51-22.74-15.79-34.09-4.22-9.07-8.48-18.13-12.7-27.2-5.43-11.67-10.81-23.37-16.24-35.04-4.22-9.07-8.48-18.13-12.7-27.2-5.31-11.42-10.56-22.87-15.88-34.28-3.9-8.38-7.88-16.72-11.8-25.09-1.42-3.04-2.76-6.11-4.17-9.16-1.43-3.09-2.9-6.17-4.42-9.38-1.32,1.32-1.52,2.51-.83,3.99,1.49,3.16,2.84,6.39,4.31,9.56,4.21,9.08,8.47,18.13,12.69,27.2,5.31,11.42,10.57,22.86,15.88,34.28,4.19,9.01,8.42,18,12.61,27.01,5.46,11.74,10.88,23.49,16.33,35.23,3.03,6.54,6.08,13.07,9.13,19.6,5.52,11.86,11.04,23.73,16.57,35.59,2.75,5.9,5.61,11.75,8.21,17.72.76,1.74,1.61,2.3,3.56,1.72Zm-30.38-.15c-.03-.2,0-.42-.09-.6-4.2-9.08-8.4-18.16-12.62-27.23-3.07-6.6-6.16-13.19-9.23-19.79-5.37-11.55-10.72-23.1-16.09-34.65-3.16-6.79-6.34-13.56-9.49-20.36-5.3-11.43-10.54-22.87-15.86-34.29-3.9-8.38-7.91-16.71-11.83-25.08-1.42-3.04-2.73-6.13-4.13-9.17-1.31-2.84-2.68-5.65-4.07-8.57-2.06,1.94-1.02,3.77-.21,5.53,3.13,6.8,6.32,13.58,9.48,20.36,5.41,11.61,10.81,23.22,16.21,34.83,4.13,8.88,8.25,17.77,12.38,26.65,5.55,11.93,11.11,23.85,16.65,35.78,2.95,6.34,5.86,12.71,8.81,19.05,5.55,11.93,11.16,23.83,16.64,35.79.78,1.7,1.71,2.27,3.47,1.73ZM110.63,37.27c.43-.53.66-.72.78-.97,3.67-7.61,7.34-15.22,10.99-22.83.15-.3.42-.71.32-.94-1.2-2.71-2.46-5.39-3.73-8.12-6.68,3.05-13,5.93-19.46,8.88,3.65,7.89,7.31,15.78,11.1,23.98Zm-73.22,113.44c39.92.26,79.63.52,119.52.78-.37-2.11-1.32-2.93-3.48-2.94-37.95-.19-75.91-.45-113.86-.7-.7,0-1.39,0-2.17-.01,0,1.07-.01,1.9-.02,2.87Zm23.28-4.21c.15.18.29.36.44.54.81-.44,2.04-.67,2.37-1.34,3.64-7.4,7.12-14.88,10.68-22.33,5.43-11.36,10.87-22.72,16.32-34.08,3.27-6.81,6.6-13.6,9.87-20.41,5.48-11.42,10.93-22.85,16.42-34.26,4.01-8.33,8.07-16.63,12.1-24.94.79-1.64,1.61-3.26,2.29-4.94.18-.44-.15-1.08-.24-1.63-.53.2-1.12.32-1.55.64-.3.22-.37.74-.55,1.12-3.34,6.94-6.68,13.87-10.02,20.81-3,6.24-5.99,12.49-9,18.73-5.55,11.54-11.11,23.07-16.66,34.61-3.22,6.68-6.42,13.37-9.64,20.05-5.71,11.85-11.43,23.7-17.14,35.55-1.91,3.96-3.79,7.93-5.69,11.89Zm108.88,32.05c-.39-2.14-1.64-2.51-3.44-2.52-42.19-.24-84.39-.52-126.58-.8-.76,0-1.53-.01-2.29-.01,0,.98-.01,1.67-.02,2.46,44.13.29,88.17.58,132.33.87Zm-78.57-31.84c1.77.65,2.5-.1,3.11-1.45,1.76-3.88,3.63-7.72,5.47-11.57,4.36-9.08,8.75-18.16,13.11-27.24,5.42-11.29,10.81-22.6,16.23-33.88,4.34-9.02,8.71-18.02,13.06-27.03,4.62-9.58,9.24-19.17,13.81-28.77.26-.54.32-1.7.03-1.89-1.08-.68-1.56.18-1.98,1.09-2.02,4.31-4.07,8.6-6.13,12.89-3.15,6.56-6.33,13.11-9.49,19.66-5.52,11.48-11.02,22.96-16.54,34.44-3.24,6.75-6.51,13.49-9.76,20.23-5.02,10.4-10.04,20.8-15.04,31.21-1.97,4.1-3.91,8.21-5.87,12.32Zm103.79,6.51c3.22,7.06,6.33,13.92,9.52,20.74.24.51,1.09,1,1.68,1.03,2.2.14,4.41.08,6.67.09.05-7.37.1-14.52.14-21.74-6.01-.04-11.88-.08-18.01-.12Zm-147.46,26.09c-1.85-.67-2.65.11-3.28,1.69-1,2.46-2.25,4.81-3.4,7.21-3.21,6.68-6.41,13.37-9.63,20.05-5.71,11.85-11.44,23.69-17.14,35.54-2.24,4.65-4.45,9.32-6.67,13.99,1.55.6,2.47.19,3.03-1.19.52-1.29,1.12-2.56,1.73-3.82,3.2-6.69,6.42-13.37,9.63-20.05,5.73-11.92,11.44-23.84,17.18-35.75,2.82-5.86,5.68-11.71,8.57-17.66Zm30.22.17c-1.65-.51-2.48.1-3.16,1.57-2.8,6.09-5.72,12.14-8.62,18.19-3.11,6.5-6.24,12.98-9.38,19.47-5.17,10.71-10.35,21.41-15.52,32.12-1.15,2.38-2.27,4.78-3.41,7.19,1.48.57,2.36.17,2.96-1.2,1.01-2.3,2.11-4.57,3.2-6.84,4.34-9.01,8.69-18.01,13.04-27.01,5.06-10.45,10.13-20.9,15.18-31.36,1.94-4.02,3.8-8.08,5.7-12.12Zm127.4,84.82c14.21.09,28.18.18,42.08.28l.02-3.54c-14.09-.09-28.06-.18-42.08-.28,0,1.25-.02,2.36-.02,3.54Zm-161.05-4.61c-14.02-.09-27.84-.18-41.67-.27,0,1.29-.02,2.46-.02,3.56,13.98.09,27.81.18,41.67.27,0-1.23.02-2.29.02-3.56ZM108.37,42.21c1.73-1.69,1.21-3.27.43-4.91-1.67-3.54-3.27-7.11-4.93-10.66-1.95-4.15-3.94-8.29-5.89-12.38-2.07.28-2.23,1.18-1.52,2.67,2.02,4.23,3.96,8.5,5.95,12.74,1.96,4.17,3.94,8.32,5.95,12.55Zm104.52,106.89c-6.67-.04-13.16-.09-19.65-.13-.15.17-.3.35-.46.52.81.79,1.59,2.23,2.43,2.27,5.85.24,11.72.18,17.66.22,0-1.05.01-1.88.02-2.88Zm-.18,27.39c-2.36-.02-4.54-.03-6.74-.04.43,2.74,1.49,3.08,6.72,2.25,0-.67,0-1.36.01-2.21ZM123.76,10.4c1.55-2.86,1.12-4.97-1.27-7.45-.58.2-1.15.4-1.9.67,1.03,2.19,2.01,4.31,3.17,6.79Z"/><path class="cls-2" d="m183.6,160.1c-.14,0-.27,0-.4-.02-2.24-.3-3.52-2.6-3.34-6.02.02-.29.18-.54.44-.67,1.41-.69,3.04-1.11,4.36-1.11,1.89,0,2.42.85,2.56,1.36.43,1.52.33,3.37-.27,4.85-.43,1.05-2.22,1.61-3.35,1.61Z"/><path class="cls-2" d="m180.66,154.1c2.44-1.21,5.47-1.43,5.8-.25.38,1.34.28,3.04-.24,4.33-.27.68-1.96,1.23-2.91,1.1-1.88-.25-2.8-2.3-2.65-5.18Z"/><path class="cls-2" d="m190.88,174.41c-.26,0-.51-.05-.75-.14-1.47-.57-3.2-2.21-3.44-3.74-.2-1.31-.01-2.29.59-2.98.61-.71,1.59-1.06,3-1.06.12,0,.24,0,.36,0,.15-.01.3-.02.45-.02,2.07,0,3.4,1.12,3.46,2.91.05,1.41-.54,2.93-1.53,3.96-.65.68-1.41,1.05-2.14,1.05Z"/><path class="cls-2" d="m190.65,167.3c1.6-.14,3.04.46,3.1,2.13.08,2.33-1.88,4.67-3.34,4.11-1.25-.48-2.76-1.92-2.94-3.12-.37-2.39.78-3.22,3.18-3.12Z"/><path class="cls-2" d="m171.48,160.21c-.71,0-1.73-.08-2.44-.8-.67-.67-.93-1.69-.92-3.52.02-2.34,1.31-3.69,3.53-3.69h.14c1.84.05,3.95,2.39,3.95,4.39,0,2.16-1.63,3.58-4.15,3.62h-.11Z"/><path class="cls-2" d="m168.92,155.9c.02-1.95,1-2.94,2.86-2.9,1.42.04,3.17,2.02,3.18,3.59,0,1.71-1.29,2.79-3.37,2.82-2.07.03-2.69-.79-2.67-3.51Z"/><path class="cls-2" d="m178.83,174.35c-.14,0-.29,0-.43-.03h-.1c-1.2-.16-3.43-.43-3.4-3.12.03-2.49.46-4.8,3.39-4.83,1.85,0,4.23,2.22,4.26,3.95.02,1.08-.4,2.14-1.15,2.91-.7.72-1.62,1.11-2.58,1.11Z"/><path class="cls-2" d="m181.77,170.34c.04,1.8-1.46,3.41-3.27,3.19-1.28-.16-2.82-.29-2.8-2.32.03-2.92.66-4.02,2.61-4.04,1.39-.01,3.44,1.86,3.46,3.17Z"/><path class="cls-2" d="m118.29,50.69c-1.8,0-3.79-2.62-3.83-4.47-.03-1.47.56-3.27,3.57-3.46.08,0,.16,0,.24,0,.97,0,1.88.39,2.56,1.08.82.83,1.26,2.02,1.25,3.35.46,2.51-1.75,3.05-2.94,3.34-.13.03-.26.06-.38.1-.15.04-.32.06-.48.06Z"/><path class="cls-2" d="m121.3,47.27c.42,2.04-1.44,2.26-2.73,2.6-1.34.35-3.28-2.05-3.31-3.65-.04-1.96,1.25-2.55,2.83-2.65,1.87-.12,3.26,1.51,3.22,3.71Z"/><path class="cls-2" d="m127.29,32.82c-.06,0-.12,0-.18,0-1.95-.16-3.74-2.65-3.92-4.61-.28-2.99,2.08-3.21,3.48-3.34.12-.01.19-.01.26-.01.82,0,1.69.42,2.44,1.19.93.95,1.49,2.22,1.47,3.34-.03,1.64-1.89,3.45-3.55,3.45Z"/><path class="cls-2" d="m130.05,29.35c-.03,1.28-1.63,2.76-2.88,2.66-1.48-.12-3.03-2.22-3.19-3.89-.21-2.22,1.36-2.34,2.81-2.48,1.52-.14,3.29,1.98,3.26,3.71Z"/><path class="cls-2" d="m124.78,64.76c-.13,0-.25,0-.36-.02-2.2-.25-3.2-3.24-3.05-6.05.01-.29.18-.54.44-.67,1.37-.68,2.34-1.08,3.21-1.08,1.24,0,2.07.8,2.94,2,.78,1.07.91,3.11.27,4.2-.59,1-2.25,1.62-3.45,1.62Z"/><path class="cls-2" d="m122.16,58.72c2.84-1.41,3.62-1.44,5.15.68.58.81.71,2.51.23,3.33-.45.76-2.04,1.32-3.03,1.21-1.55-.18-2.48-2.59-2.35-5.22Z"/><path class="cls-2" d="m134.5,46.91c-.21,0-.41-.03-.61-.1-1.54-.48-3.17-1.88-4.06-3.47-.37-.66-.3-1.51.2-2.35.55-.93,1.7-1.94,2.94-1.94.15,0,.3.02.45.05,1.12.24,2.12.91,2.92,1.45.3.2.58.39.83.54.23.13.39.38.4.65.1,1.71-.41,3.38-1.33,4.35-.51.54-1.11.82-1.73.82Z"/><path class="cls-2" d="m136.77,41.78c.14,2.56-1.23,4.72-2.65,4.27-1.42-.45-2.86-1.77-3.6-3.1-.66-1.18,1.29-3.39,2.72-3.08,1.37.29,2.56,1.36,3.53,1.9Z"/><path class="cls-2" d="m60.16,173.54c-.88,0-1.76-.4-2.47-1.12-.9-.92-1.45-2.26-1.43-3.52.03-1.98,1.22-3.08,3.54-3.27.06,0,.13,0,.2,0,.83,0,1.7.43,2.45,1.21.92.95,1.47,2.21,1.45,3.3.06,1.15-.32,3.09-3.44,3.41-.1.01-.2.02-.3.02Z"/><path class="cls-2" d="m63.1,170.13c.12,1.98-1.38,2.47-2.72,2.61-1.78.18-3.36-1.89-3.33-3.82.03-1.89,1.33-2.37,2.81-2.49,1.53-.13,3.29,2.03,3.23,3.71Z"/><path class="cls-2" d="m71.84,173.64c-.9,0-1.8-.42-2.54-1.18-.89-.92-1.41-2.19-1.37-3.39.06-2,1.51-3.4,3.54-3.4.07,0,.13,0,.2,0,1.87.08,3.88,2.43,3.88,4.5.13,1.34-.36,3.01-3.3,3.43-.14.02-.27.03-.41.03Z"/><path class="cls-2" d="m74.75,170.21c.19,1.87-1.26,2.42-2.62,2.61-1.75.25-3.47-1.8-3.41-3.73.05-1.63,1.23-2.7,2.91-2.62,1.44.06,3.15,2.09,3.12,3.74Z"/><path class="cls-2" d="m88.84,148.74c-.25,0-.49-.11-.64-.33l-15.88-21.77c-.13-.17-.18-.39-.14-.59.03-.21.15-.4.32-.52l2.03-1.45c.14-.1.3-.15.46-.15.25,0,.49.11.64.33l15.88,21.77c.13.17.18.39.14.59-.03.21-.15.4-.32.52l-2.03,1.45c-.14.1-.3.15-.46.15Z"/><polygon class="cls-2" points="88.84 147.95 72.97 126.18 75 124.72 90.87 146.49 88.84 147.95"/><path class="cls-2" d="m125.42,22.43c-.37,0-.7-.26-.78-.63l-.5-2.43c-.04-.21,0-.42.11-.6.12-.18.3-.3.51-.34l27.59-5.62c.05-.01.11-.02.16-.02.37,0,.7.26.78.63l.5,2.43c.04.21,0,.42-.11.6-.12.18-.3.3-.51.34l-27.59,5.62c-.05.01-.11.02-.16.02Z"/><polygon class="cls-2" points="125.42 21.63 124.91 19.2 152.5 13.58 153.01 16.02 125.42 21.63"/><path class="cls-2" d="m74.22,127.47c-.37,0-.71-.26-.78-.64l-.47-2.44c-.04-.21,0-.42.12-.6.12-.18.3-.3.51-.34l27.53-5.25c.05,0,.1-.01.15-.01.37,0,.71.26.78.64l.47,2.44c.04.21,0,.42-.12.6-.12.18-.3.3-.51.34l-27.53,5.25c-.05,0-.1.01-.15.01Z"/><polygon class="cls-2" points="74.22 126.67 73.74 124.23 101.28 118.98 101.75 121.42 74.22 126.67"/><path class="cls-2" d="m34.56,259.19c-.26,0-.52-.13-.67-.37l-14.33-22.52c-.11-.18-.15-.4-.1-.6s.17-.39.35-.5l2.12-1.33c.13-.08.28-.12.42-.12.26,0,.52.13.67.37l14.33,22.52c.11.18.15.4.1.6s-.17.39-.35.5l-2.12,1.33c-.13.08-.28.12-.42.12Z"/><polygon class="cls-2" points="34.56 258.4 20.24 235.88 22.35 234.55 36.68 257.07 34.56 258.4"/><path class="cls-2" d="m21.53,237.23c-.37,0-.71-.26-.78-.64l-.47-2.44c-.04-.21,0-.42.12-.6.12-.17.3-.3.51-.34l27.53-5.25c.05,0,.1-.01.15-.01.37,0,.71.26.78.64l.47,2.44c.04.21,0,.42-.12.6-.12.17-.3.3-.51.34l-27.53,5.25c-.05,0-.1.01-.15.01Z"/><polygon class="cls-2" points="21.53 236.43 21.06 233.99 48.59 228.74 49.06 231.18 21.53 236.43"/><path class="cls-2" d="m48.51,230.4c-.26,0-.52-.13-.67-.37l-14.32-22.52c-.11-.18-.15-.4-.1-.6s.17-.39.35-.5l2.12-1.33c.13-.08.28-.12.42-.12.26,0,.52.13.67.37l14.32,22.52c.11.18.15.4.1.6s-.17.39-.35.5l-2.12,1.33c-.13.08-.28.12-.42.12Z"/><polygon class="cls-2" points="48.51 229.6 34.18 207.08 36.3 205.76 50.63 228.28 48.51 229.6"/><path class="cls-2" d="m35.48,208.44c-.37,0-.71-.26-.78-.64l-.47-2.44c-.04-.21,0-.42.12-.6.12-.17.3-.3.51-.34l27.53-5.25c.05,0,.1-.01.15-.01.37,0,.71.26.78.64l.47,2.44c.04.21,0,.42-.12.6-.12.17-.3.3-.51.34l-27.53,5.25c-.05,0-.1.01-.15.01Z"/><polygon class="cls-2" points="35.48 207.64 35.01 205.2 62.54 199.95 63.01 202.39 35.48 207.64"/><path class="cls-2" d="m62.45,202.66c-.26,0-.52-.13-.67-.37l-14.33-22.52c-.11-.18-.15-.4-.1-.6s.17-.39.35-.5l2.12-1.33c.13-.08.28-.12.42-.12.26,0,.52.13.67.37l14.33,22.52c.11.18.15.4.1.6s-.17.39-.35.5l-2.12,1.33c-.13.08-.28.12-.42.12Z"/><polygon class="cls-2" points="62.45 201.87 48.12 179.35 50.24 178.02 64.57 200.54 62.45 201.87"/><path class="cls-2" d="m100.39,121.56c-.26,0-.52-.13-.67-.37l-14.33-22.52c-.11-.18-.15-.4-.1-.6s.17-.39.35-.5l2.12-1.33c.13-.08.28-.12.42-.12.26,0,.52.13.67.37l14.33,22.52c.11.18.15.4.1.6s-.17.39-.35.5l-2.12,1.33c-.13.08-.28.12-.42.12Z"/><polygon class="cls-2" points="100.39 120.76 86.06 98.24 88.18 96.92 102.51 119.44 100.39 120.76"/><path class="cls-2" d="m87.35,99.6c-.38,0-.71-.27-.78-.65l-.46-2.44c-.04-.21,0-.42.13-.6.12-.17.3-.29.51-.33l28.43-5.25s.1-.01.15-.01c.38,0,.71.27.78.65l.46,2.44c.04.21,0,.42-.13.6-.12.17-.3.29-.51.33l-28.43,5.25s-.1.01-.15.01Z"/><polygon class="cls-2" points="87.35 98.8 86.89 96.36 115.33 91.11 115.78 93.55 87.35 98.8"/><path class="cls-2" d="m113.66,93.82c-.26,0-.52-.13-.67-.37l-14.32-22.52c-.11-.18-.15-.4-.1-.6s.17-.39.35-.5l2.12-1.33c.13-.08.28-.12.42-.12.26,0,.52.13.67.37l14.32,22.52c.11.18.15.4.1.6s-.17.39-.35.5l-2.12,1.33c-.13.08-.28.12-.42.12Z"/><polygon class="cls-2" points="113.66 93.02 99.34 70.51 101.45 69.18 115.78 91.7 113.66 93.02"/><path class="cls-2" d="m100.51,71.9c-.41,0-.75-.31-.79-.72l-.23-2.47c-.02-.21.05-.42.18-.58.14-.16.33-.26.54-.28l27.86-2.49s.05,0,.07,0c.41,0,.75.31.79.72l.23,2.47c.02.21-.05.42-.18.58-.14.16-.33.26-.54.28l-27.86,2.49s-.05,0-.07,0Z"/><polygon class="cls-2" points="100.51 71.1 100.28 68.63 128.14 66.14 128.37 68.61 100.51 71.1"/><path class="cls-1" d="m315.58,122.34c3.33.02,6.67.3,9.99.83,3.34.52,6.45,1.22,9.34,2.1,2.9.89,5.47,1.87,7.71,2.97,2.24,1.1,3.72,2,4.44,2.72.72.72,1.2,1.34,1.46,1.84.25.51.46,1.17.64,2,.17.83.29,1.87.36,3.13.06,1.26.09,2.83.08,4.69-.01,2.09-.08,3.85-.2,5.29-.12,1.43-.31,2.63-.57,3.55-.26.94-.62,1.62-1.1,2.05-.47.43-1.11.63-1.91.63s-2.06-.51-3.79-1.53c-1.74-1.03-3.87-2.13-6.4-3.33-2.53-1.21-5.45-2.3-8.78-3.29-3.32-.99-6.98-1.5-10.97-1.53-3.12-.02-5.85.34-8.17,1.07-2.32.75-4.28,1.77-5.84,3.1-1.57,1.31-2.74,2.91-3.5,4.77-.77,1.87-1.17,3.85-1.19,5.93-.02,3.09.82,5.77,2.51,8.04,1.69,2.27,3.96,4.31,6.81,6.08,2.85,1.79,6.09,3.45,9.7,5.02,3.62,1.57,7.3,3.24,11.07,4.99,3.75,1.75,7.43,3.74,11.05,5.95,3.61,2.22,6.81,4.87,9.62,7.94,2.81,3.08,5.07,6.69,6.79,10.83,1.71,4.14,2.55,9.03,2.51,14.64-.05,7.33-1.47,13.76-4.26,19.27-2.79,5.51-6.56,10.12-11.29,13.78-4.73,3.67-10.26,6.43-16.59,8.25-6.31,1.82-13.07,2.72-20.25,2.67-4.85-.03-9.36-.46-13.53-1.27-4.16-.82-7.83-1.8-11.01-2.93-3.19-1.14-5.84-2.32-7.97-3.56-2.13-1.23-3.66-2.32-4.6-3.27-.94-.93-1.6-2.29-1.99-4.05-.39-1.77-.56-4.3-.54-7.61.01-2.22.09-4.1.25-5.61.15-1.5.4-2.72.74-3.66.33-.93.77-1.6,1.32-1.98.55-.39,1.18-.59,1.91-.58,1.01,0,2.43.61,4.29,1.81,1.84,1.2,4.2,2.52,7.09,3.99,2.9,1.45,6.35,2.79,10.36,4,4.01,1.22,8.67,1.83,13.96,1.87,3.48.02,6.6-.37,9.36-1.18,2.77-.81,5.11-1.97,7.04-3.45,1.94-1.5,3.42-3.37,4.45-5.58,1.03-2.22,1.56-4.7,1.57-7.43.02-3.17-.84-5.89-2.56-8.17-1.72-2.27-3.98-4.3-6.75-6.08-2.78-1.77-5.94-3.45-9.49-5.02-3.54-1.57-7.19-3.23-10.96-4.99-3.75-1.75-7.4-3.73-10.94-5.95-3.54-2.21-6.69-4.86-9.47-7.93-2.76-3.08-5.01-6.7-6.72-10.89-1.71-4.17-2.56-9.18-2.52-15,.04-6.69,1.34-12.56,3.87-17.61,2.54-5.05,5.94-9.24,10.2-12.55,4.26-3.32,9.28-5.78,15.06-7.4,5.77-1.62,11.88-2.41,18.34-2.36Zm403.78,4.49c2.83.02,5.14.13,6.96.37,1.81.22,3.26.52,4.35.89,1.08.37,1.85.84,2.33,1.42.46.58.69,1.23.69,1.95l-.74,112.27,44.25.29c.73,0,1.37.21,1.9.61.54.39,1,1.04,1.35,1.94.36.91.62,2.09.8,3.57.17,1.47.25,3.29.23,5.45s-.12,3.97-.3,5.44c-.2,1.48-.47,2.69-.85,3.66-.36.97-.82,1.67-1.37,2.1-.54.43-1.17.63-1.91.63l-64.48-.42c-2.39-.02-4.39-.72-6.02-2.14-1.62-1.41-2.42-3.7-2.4-6.86l.83-126.72c0-.72.25-1.37.73-1.94.47-.57,1.25-1.03,2.35-1.39,1.09-.36,2.55-.63,4.4-.83,1.86-.21,4.15-.29,6.92-.27Zm-351.57-1.66l99.17.65c.66,0,1.26.21,1.8.61.53.4.98,1.04,1.35,1.95.35.9.62,2.1.79,3.62.17,1.51.25,3.35.23,5.5-.01,2.09-.11,3.86-.3,5.34-.19,1.47-.47,2.65-.84,3.55-.37.89-.83,1.55-1.37,1.99-.55.43-1.15.63-1.81.63l-35.22-.23-.74,112.49c0,.72-.25,1.36-.73,1.94-.47.57-1.25,1.03-2.35,1.39-1.09.35-2.55.62-4.4.83-1.85.2-4.15.29-6.92.27-2.75-.02-5.05-.14-6.9-.37-1.85-.23-3.31-.53-4.39-.89-1.09-.37-1.86-.84-2.33-1.42-.47-.59-.7-1.23-.7-1.95l.74-112.49-35.23-.23c-.72,0-1.33-.22-1.84-.65-.5-.44-.93-1.11-1.29-2.01-.36-.91-.62-2.09-.79-3.56-.17-1.48-.26-3.26-.24-5.35s.13-3.99.31-5.5.46-2.71.84-3.61c.37-.9.81-1.54,1.32-1.93.51-.39,1.13-.59,1.85-.58Zm128.48.84l70.24.46c.66,0,1.23.18,1.73.55.51.37.94.99,1.3,1.9.35.9.62,2.05.79,3.45.17,1.4.25,3.19.23,5.35-.01,2.01-.11,3.72-.3,5.12-.19,1.4-.47,2.53-.83,3.4-.37.86-.81,1.49-1.33,1.88-.5.38-1.08.58-1.74.57l-50.23-.33-.22,34.08,42.51.28c.65,0,1.25.21,1.79.61.54.39.98,1.01,1.35,1.84.35.82.62,1.94.79,3.34.17,1.4.26,3.12.24,5.12-.01,2.09-.13,3.81-.31,5.18-.19,1.37-.47,2.46-.83,3.28-.37.83-.82,1.42-1.37,1.77-.55.36-1.15.53-1.8.53l-42.51-.28-.26,39.36,50.66.33c.66,0,1.26.21,1.79.61.54.4,1,1.03,1.35,1.9.36.86.62,2,.8,3.41.17,1.4.25,3.14.23,5.22-.01,2.09-.11,3.83-.3,5.23-.2,1.4-.47,2.54-.85,3.4-.36.86-.82,1.49-1.37,1.88-.54.38-1.14.58-1.8.57l-70.68-.46c-2.39-.02-4.39-.72-6.02-2.14-1.62-1.41-2.42-3.7-2.4-6.86l.8-121.65c.02-3.17.86-5.44,2.49-6.83,1.65-1.39,3.65-2.09,6.05-2.07Zm108.61.71l70.24.46c.66,0,1.23.18,1.73.55.51.37.94.99,1.3,1.9.35.9.62,2.05.79,3.45.17,1.4.25,3.19.23,5.35-.01,2.01-.11,3.72-.3,5.12-.19,1.4-.47,2.53-.83,3.4-.37.86-.81,1.49-1.33,1.88-.5.38-1.08.58-1.74.57l-50.23-.33-.22,34.08,42.51.28c.65,0,1.25.21,1.79.61.54.39.98,1.01,1.35,1.84.35.82.62,1.94.79,3.34.17,1.4.26,3.12.24,5.12s-.13,3.81-.31,5.18c-.19,1.37-.47,2.46-.83,3.28-.37.83-.82,1.42-1.37,1.77-.55.36-1.15.53-1.8.53l-42.51-.28-.26,39.36,50.66.33c.66,0,1.26.21,1.79.61.54.4,1,1.03,1.35,1.9.36.86.62,2,.8,3.41.17,1.4.25,3.14.23,5.22-.01,2.09-.11,3.83-.3,5.23-.2,1.4-.47,2.54-.85,3.4-.36.86-.82,1.49-1.37,1.88-.54.38-1.14.58-1.8.57l-70.68-.46c-2.39-.02-4.39-.72-6.02-2.14-1.62-1.41-2.42-3.7-2.4-6.86l.8-121.65c.02-3.17.86-5.44,2.49-6.83,1.65-1.39,3.65-2.09,6.05-2.07Z"/></svg>